<svg width="160" height="24" viewBox="0 0 160 24" fill="none" xmlns="http://www.w3.org/2000/svg">
<path d="M2.6293 17.8999V16.9008H3.27786C3.47652 16.9008 3.6518 16.8774 3.80372 16.8307C3.95563 16.7722 4.07249 16.6612 4.15429 16.4976C4.23609 16.334 4.27699 16.0886 4.27699 15.7614V6.5238H2.97987C2.6293 6.5238 2.35468 6.57054 2.15603 6.66403C1.95737 6.74583 1.8113 6.87437 1.71781 7.04966C1.62432 7.22495 1.56005 7.44113 1.52499 7.69822L1.38476 8.92523H0.105172L0.192815 5.38444H11.5339L11.6215 8.92523H10.3419L10.2192 7.69822C10.1958 7.44113 10.1316 7.22495 10.0264 7.04966C9.93291 6.87437 9.78684 6.74583 9.58818 6.66403C9.38952 6.57054 9.1149 6.5238 8.76433 6.5238H7.46721V15.7965C7.46721 16.112 7.50811 16.3515 7.58991 16.5151C7.6834 16.6671 7.8061 16.7722 7.95801 16.8307C8.10993 16.8774 8.27937 16.9008 8.46634 16.9008H9.1149V17.8999H2.6293ZM11.9886 17.8999V16.9008H12.0588C12.3275 16.9008 12.5554 16.8716 12.7424 16.8131C12.9294 16.7547 13.0754 16.6378 13.1806 16.4626C13.2858 16.2756 13.3384 16.001 13.3384 15.6387V10.6956C13.3384 10.345 13.2916 10.088 13.1981 9.92436C13.1163 9.74907 12.9878 9.63806 12.8125 9.59132C12.6372 9.53289 12.421 9.50367 12.1639 9.50367H12.1113V8.50454H15.9501L16.3007 10.012H16.3883C16.5636 9.603 16.7681 9.26996 17.0018 9.01287C17.2356 8.75578 17.516 8.56881 17.8432 8.45195C18.1704 8.3351 18.5677 8.27667 19.0352 8.27667C19.7129 8.27667 20.2096 8.42858 20.5251 8.73241C20.8406 9.02456 20.9984 9.40434 20.9984 9.87177C20.9984 10.4794 20.7763 10.9293 20.3323 11.2215C19.8999 11.5019 19.3098 11.6422 18.5619 11.6422C18.5619 11.315 18.5385 11.0462 18.4918 10.8359C18.445 10.6138 18.3632 10.4444 18.2464 10.3275C18.1412 10.2107 17.9776 10.1522 17.7556 10.1522C17.4985 10.1522 17.2823 10.2399 17.107 10.4152C16.9434 10.5904 16.809 10.8242 16.7039 11.1163C16.6104 11.3968 16.5403 11.7006 16.4935 12.0278C16.4468 12.3433 16.4234 12.6355 16.4234 12.9042V15.7263C16.4234 16.0652 16.4701 16.3223 16.5636 16.4976C16.6571 16.6612 16.7915 16.7722 16.9668 16.8307C17.1421 16.8774 17.3407 16.9008 17.5628 16.9008H18.1587V17.8999H11.9886ZM21.6635 20.8272C22.2712 20.8272 22.7912 20.7571 23.2236 20.6168C23.6559 20.4883 24.0123 20.3013 24.2928 20.0559C24.585 19.8105 24.8245 19.5184 25.0115 19.1795C25.1985 18.8406 25.3621 18.4667 25.5023 18.0577L22.3822 10.31C22.3004 10.088 22.2069 9.9302 22.1017 9.83672C21.9966 9.73155 21.8797 9.66143 21.7512 9.62637C21.6226 9.57963 21.4765 9.55626 21.3129 9.55626H21.2253V8.50454H26.5891V9.50367H26.5189C26.1684 9.50367 25.9054 9.55042 25.7302 9.6439C25.5666 9.73739 25.4848 9.89515 25.4848 10.1172C25.4848 10.2223 25.5023 10.345 25.5373 10.4853C25.5841 10.6138 25.625 10.7307 25.66 10.8359L26.7118 13.7982C26.7819 13.9852 26.8403 14.1663 26.887 14.3416C26.9455 14.5169 26.9922 14.6805 27.0273 14.8324C27.0623 14.9726 27.0916 15.107 27.1149 15.2355C27.1383 15.3641 27.1558 15.4868 27.1675 15.6036C27.1909 15.3466 27.2376 15.1012 27.3077 14.8674C27.3779 14.622 27.4304 14.4468 27.4655 14.3416L28.5698 11.0462C28.6049 10.941 28.6458 10.795 28.6925 10.608C28.7392 10.4093 28.7626 10.2574 28.7626 10.1522C28.7626 9.90683 28.6691 9.74323 28.4822 9.66143C28.3069 9.56794 28.0381 9.51536 27.6758 9.50367H27.6057V8.50454H31.4971V9.50367H31.427C31.2166 9.51536 31.0297 9.5621 30.8661 9.6439C30.7141 9.7257 30.5739 9.86009 30.4454 10.0471C30.3285 10.2223 30.2117 10.4561 30.0948 10.7482L27.448 17.8648C27.1558 18.6828 26.8754 19.3489 26.6066 19.8631C26.3378 20.389 26.0165 20.8038 25.6425 21.1076C25.2686 21.4115 24.7953 21.6218 24.2227 21.7387C23.6501 21.8672 22.9139 21.9315 22.0141 21.9315H21.6635V20.8272ZM37.47 7.31259C37.3999 7.06719 37.3064 6.88022 37.1895 6.75167C37.0843 6.61144 36.9558 6.51796 36.8039 6.47121C36.652 6.41279 36.4592 6.38357 36.2254 6.38357H35.9976V5.38444H42.2553V6.38357H41.8521C41.5016 6.38357 41.2386 6.45369 41.0634 6.59391C40.8881 6.72246 40.8004 6.9328 40.8004 7.22495C40.8004 7.28338 40.8121 7.37686 40.8355 7.5054C40.8589 7.63395 40.8822 7.76834 40.9056 7.90856C40.9407 8.04879 40.9699 8.18318 40.9932 8.31172L42.0625 12.1154C42.1443 12.3725 42.2202 12.653 42.2904 12.9568C42.3722 13.2606 42.4423 13.5586 42.5007 13.8508C42.5708 14.1312 42.6176 14.3942 42.6409 14.6396C42.7227 14.289 42.8104 13.9501 42.9039 13.6229C42.9973 13.2957 43.1025 12.9393 43.2194 12.5537L45.5156 5.50714H47.0757L49.2317 11.835C49.3603 12.1972 49.4771 12.5595 49.5823 12.9218C49.6875 13.2723 49.7751 13.5995 49.8452 13.9034C49.927 14.1955 49.9913 14.4584 50.038 14.6922C50.0848 14.4234 50.149 14.1137 50.2308 13.7631C50.3126 13.4009 50.3944 13.0269 50.4762 12.6413C50.5697 12.2557 50.6632 11.8876 50.7567 11.537L51.528 8.39937C51.5864 8.20071 51.639 7.98452 51.6857 7.75081C51.7325 7.51709 51.7558 7.33596 51.7558 7.20742C51.7558 6.90359 51.6682 6.69324 51.4929 6.57639C51.3293 6.44784 51.0547 6.38357 50.6691 6.38357H50.2659V5.38444H54.9636V6.38357H54.6305C54.4085 6.38357 54.2157 6.41863 54.0521 6.48874C53.8885 6.54717 53.7483 6.67572 53.6314 6.87437C53.5145 7.07303 53.4035 7.36518 53.2984 7.75081L50.5814 17.8999H48.2852L45.5857 9.92436L43.0616 17.8999H40.6777L37.47 7.31259ZM59.3567 18.0752C57.7674 18.0752 56.5813 17.6545 55.7984 16.8131C55.0154 15.9601 54.624 14.7681 54.624 13.2373C54.624 11.5896 55.0154 10.3509 55.7984 9.5212C56.593 8.67983 57.709 8.25914 59.1464 8.25914C60.4785 8.25914 61.5244 8.61555 62.284 9.32839C63.0553 10.0412 63.4409 11.0929 63.4409 12.4835V13.4301H57.7265C57.7499 14.178 57.8492 14.7915 58.0245 15.2706C58.2115 15.7497 58.4744 16.1061 58.8133 16.3399C59.1522 16.5619 59.5671 16.6729 60.0579 16.6729C60.4669 16.6729 60.8174 16.6086 61.1096 16.4801C61.4134 16.3399 61.6705 16.1587 61.8808 15.9367C62.1029 15.703 62.2782 15.44 62.4067 15.1479C62.6054 15.218 62.7573 15.329 62.8624 15.4809C62.9793 15.6212 63.0377 15.8023 63.0377 16.0243C63.0377 16.3632 62.9092 16.6904 62.6521 17.0059C62.4067 17.3215 62.0152 17.5785 61.4777 17.7772C60.9401 17.9759 60.2331 18.0752 59.3567 18.0752ZM60.3909 12.2381C60.3909 11.6422 60.35 11.1397 60.2682 10.7307C60.1864 10.3217 60.0579 10.012 59.8826 9.80166C59.719 9.57963 59.4969 9.46862 59.2165 9.46862C58.936 9.46862 58.6848 9.57379 58.4627 9.78413C58.2407 9.99448 58.0713 10.3041 57.9544 10.7132C57.8376 11.1222 57.7733 11.6305 57.7616 12.2381H60.3909ZM71.3803 18.0752C70.7025 18.0752 70.1474 17.935 69.715 17.6545C69.2827 17.3624 68.9379 16.9884 68.6809 16.5327H68.5231L67.9622 17.8999H64.4039V16.9008H64.5266C64.7369 16.9008 64.9414 16.8716 65.1401 16.8131C65.3387 16.7547 65.5023 16.6378 65.6309 16.4626C65.7594 16.2873 65.8237 16.0243 65.8237 15.6738V6.75167C65.8237 6.41279 65.7594 6.16154 65.6309 5.99794C65.514 5.83434 65.3563 5.72333 65.1576 5.6649C64.9589 5.60647 64.7311 5.57725 64.474 5.57725H64.4039V4.57812H68.8912V7.48788C68.8912 7.67485 68.8854 7.89688 68.8737 8.15397C68.862 8.41105 68.8445 8.6623 68.8211 8.9077C68.7977 9.1531 68.7743 9.36344 68.751 9.53873H68.8737C69.1191 9.17647 69.4463 8.87848 69.8553 8.64477C70.276 8.39937 70.8194 8.27667 71.4854 8.27667C72.619 8.27667 73.4837 8.66814 74.0797 9.45109C74.6757 10.234 74.9736 11.4669 74.9736 13.1496C74.9736 14.2832 74.8334 15.218 74.553 15.9542C74.2842 16.6787 73.881 17.2163 73.3435 17.5669C72.8176 17.9057 72.1632 18.0752 71.3803 18.0752ZM70.4513 16.6904C70.7901 16.6904 71.0648 16.556 71.2751 16.2873C71.4854 16.0068 71.6374 15.6036 71.7308 15.0778C71.836 14.5519 71.8886 13.9034 71.8886 13.1321C71.8886 12.3608 71.836 11.7181 71.7308 11.204C71.6374 10.6781 71.4854 10.2866 71.2751 10.0295C71.0648 9.77245 70.7901 9.6439 70.4513 9.6439C69.8436 9.6439 69.4287 9.93605 69.2067 10.5203C68.9964 11.0929 68.8912 11.9694 68.8912 13.1496C68.8912 13.9092 68.9379 14.5519 69.0314 15.0778C69.1249 15.6036 69.2827 16.0068 69.5047 16.2873C69.7384 16.556 70.0539 16.6904 70.4513 16.6904ZM85.1201 18.0752C84.2437 18.0752 83.525 17.9992 82.9641 17.8473C82.4032 17.6837 81.9591 17.4792 81.6319 17.2338C81.3164 16.9884 81.0944 16.7255 80.9658 16.445C80.8373 16.1529 80.773 15.8841 80.773 15.6387C80.773 15.1713 80.8782 14.809 81.0885 14.5519C81.2989 14.2832 81.5677 14.0962 81.8949 13.991C82.2221 13.8742 82.5726 13.8157 82.9466 13.8157C82.9466 14.5519 83.0634 15.1537 83.2972 15.6212C83.5309 16.0769 83.8405 16.4158 84.2262 16.6378C84.6118 16.8482 85.0208 16.9534 85.4532 16.9534C86.1076 16.9534 86.6101 16.7722 86.9607 16.41C87.3229 16.0477 87.504 15.6387 87.504 15.183C87.504 14.7973 87.3813 14.4643 87.1359 14.1838C86.9022 13.9034 86.5633 13.6463 86.1193 13.4126C85.6752 13.1788 85.1318 12.9334 84.4891 12.6764C83.8464 12.4076 83.3088 12.133 82.8765 11.8525C82.4441 11.5721 82.0994 11.2741 81.8423 10.9586C81.5852 10.6314 81.4041 10.2925 81.2989 9.94189C81.1937 9.57963 81.1411 9.194 81.1411 8.785C81.1411 8.04879 81.3398 7.41776 81.7371 6.8919C82.1344 6.35436 82.672 5.93951 83.3497 5.64737C84.0392 5.35522 84.8105 5.20915 85.6635 5.20915C86.575 5.20915 87.3171 5.31432 87.8897 5.52467C88.474 5.72333 88.9005 5.98626 89.1693 6.31346C89.438 6.62897 89.5724 6.96786 89.5724 7.33012C89.5724 7.76249 89.3854 8.12475 89.0115 8.4169C88.6492 8.70904 88.0474 8.85511 87.2061 8.85511C87.2061 8.48117 87.1359 8.10722 86.9957 7.73328C86.8672 7.34765 86.6627 7.02045 86.3822 6.75167C86.1017 6.4829 85.7453 6.34851 85.313 6.34851C85.0091 6.34851 84.7345 6.40694 84.4891 6.5238C84.2437 6.62897 84.045 6.78673 83.8931 6.99707C83.7529 7.20742 83.6828 7.48203 83.6828 7.82092C83.6828 8.08969 83.7587 8.35847 83.9107 8.62724C84.0626 8.88433 84.3547 9.1531 84.7871 9.43356C85.2195 9.71402 85.8505 10.0237 86.6802 10.3626C87.5333 10.7015 88.2052 11.0637 88.696 11.4494C89.1985 11.8233 89.549 12.2381 89.7477 12.6939C89.9581 13.1379 90.0632 13.6404 90.0632 14.2014C90.0632 14.9609 89.8587 15.6329 89.4497 16.2172C89.0524 16.7898 88.4798 17.2455 87.7319 17.5844C86.9957 17.9116 86.1251 18.0752 85.1201 18.0752ZM96.0002 18.0752C95.1121 18.0752 94.3292 17.9291 93.6514 17.637C92.9736 17.3331 92.4478 16.8307 92.0738 16.1295C91.6999 15.4167 91.5129 14.4468 91.5129 13.2197C91.5129 11.9577 91.7057 10.9702 92.0913 10.2574C92.4887 9.53289 93.0204 9.01871 93.6865 8.71488C94.3642 8.41105 95.118 8.25914 95.9477 8.25914C96.8241 8.25914 97.5252 8.34678 98.0511 8.52207C98.5886 8.69735 98.9801 8.92523 99.2255 9.20569C99.4709 9.48614 99.5936 9.78997 99.5936 10.1172C99.5936 10.3509 99.5293 10.5963 99.4008 10.8534C99.2839 11.1105 99.0385 11.3267 98.6646 11.5019C98.3023 11.6772 97.7648 11.7649 97.052 11.7649C97.052 11.3442 97.0227 10.9586 96.9643 10.608C96.9059 10.2457 96.8007 9.95358 96.6488 9.73155C96.5086 9.50952 96.3099 9.3985 96.0528 9.3985C95.7607 9.3985 95.5036 9.51536 95.2816 9.74907C95.0712 9.9711 94.9076 10.3567 94.7908 10.906C94.6739 11.4552 94.6155 12.2206 94.6155 13.2022C94.6155 13.9735 94.6797 14.622 94.8083 15.1479C94.9368 15.6621 95.1355 16.0477 95.4043 16.3048C95.6847 16.5619 96.0411 16.6904 96.4735 16.6904C96.8942 16.6904 97.274 16.6262 97.6129 16.4976C97.9634 16.3691 98.2673 16.1879 98.5244 15.9542C98.7815 15.7205 98.9743 15.4693 99.1028 15.2005C99.2664 15.2823 99.3833 15.405 99.4534 15.5686C99.5235 15.7322 99.5586 15.8958 99.5586 16.0594C99.5586 16.3515 99.4359 16.6554 99.1905 16.9709C98.9451 17.2864 98.5594 17.5493 98.0336 17.7597C97.5194 17.97 96.8416 18.0752 96.0002 18.0752ZM100.488 17.8999V16.9008H100.558C100.827 16.9008 101.055 16.8716 101.242 16.8131C101.429 16.7547 101.575 16.6378 101.68 16.4626C101.785 16.2756 101.838 16.001 101.838 15.6387V10.6956C101.838 10.345 101.791 10.088 101.697 9.92436C101.616 9.74907 101.487 9.63806 101.312 9.59132C101.136 9.53289 100.92 9.50367 100.663 9.50367H100.611V8.50454H104.449L104.8 10.012H104.888C105.063 9.603 105.267 9.26996 105.501 9.01287C105.735 8.75578 106.015 8.56881 106.342 8.45195C106.67 8.3351 107.067 8.27667 107.534 8.27667C108.212 8.27667 108.709 8.42858 109.024 8.73241C109.34 9.02456 109.498 9.40434 109.498 9.87177C109.498 10.4794 109.276 10.9293 108.831 11.2215C108.399 11.5019 107.809 11.6422 107.061 11.6422C107.061 11.315 107.038 11.0462 106.991 10.8359C106.944 10.6138 106.862 10.4444 106.746 10.3275C106.64 10.2107 106.477 10.1522 106.255 10.1522C105.998 10.1522 105.782 10.2399 105.606 10.4152C105.443 10.5904 105.308 10.8242 105.203 11.1163C105.11 11.3968 105.039 11.7006 104.993 12.0278C104.946 12.3433 104.923 12.6355 104.923 12.9042V15.7263C104.923 16.0652 104.969 16.3223 105.063 16.4976C105.156 16.6612 105.291 16.7722 105.466 16.8307C105.641 16.8774 105.84 16.9008 106.062 16.9008H106.658V17.8999H100.488ZM112.923 18.0752C112.42 18.0752 111.959 17.97 111.538 17.7597C111.117 17.5493 110.784 17.2338 110.539 16.8131C110.294 16.3808 110.171 15.8432 110.171 15.2005C110.171 14.2423 110.492 13.5353 111.135 13.0795C111.789 12.6238 112.765 12.3725 114.062 12.3258L115.5 12.2732V11.3267C115.5 10.9177 115.47 10.5729 115.412 10.2925C115.354 10.0003 115.254 9.77829 115.114 9.62637C114.974 9.47446 114.775 9.3985 114.518 9.3985C114.273 9.3985 114.074 9.47446 113.922 9.62637C113.77 9.77829 113.653 9.99448 113.571 10.2749C113.501 10.5554 113.466 10.8943 113.466 11.2916C112.613 11.2916 111.971 11.204 111.538 11.0287C111.117 10.8417 110.907 10.5262 110.907 10.0821C110.907 9.63806 111.077 9.28749 111.415 9.0304C111.766 8.76163 112.228 8.56881 112.8 8.45195C113.373 8.32341 114.004 8.25914 114.693 8.25914C115.99 8.25914 116.96 8.48117 117.603 8.92523C118.246 9.3576 118.567 10.1172 118.567 11.204V15.6562C118.567 15.9717 118.596 16.223 118.655 16.41C118.725 16.5853 118.836 16.7138 118.988 16.7956C119.151 16.8657 119.362 16.9008 119.619 16.9008H119.689V17.8999H116.061L115.657 16.8131H115.5C115.243 17.1286 114.997 17.3799 114.763 17.5669C114.541 17.7421 114.284 17.8707 113.992 17.9525C113.712 18.0343 113.355 18.0752 112.923 18.0752ZM114.115 16.7255C114.407 16.7255 114.652 16.6378 114.851 16.4626C115.061 16.2756 115.219 16.0185 115.324 15.6913C115.441 15.3641 115.5 14.9843 115.5 14.5519V13.2723L114.851 13.3249C114.454 13.3483 114.144 13.4359 113.922 13.5879C113.7 13.7398 113.536 13.956 113.431 14.2364C113.338 14.5052 113.291 14.8441 113.291 15.2531C113.291 15.5686 113.32 15.8374 113.379 16.0594C113.437 16.2814 113.525 16.4509 113.642 16.5677C113.77 16.6729 113.928 16.7255 114.115 16.7255ZM120.377 21.9315V20.9148H120.605C120.745 20.9148 120.909 20.8915 121.096 20.8447C121.283 20.798 121.441 20.6928 121.569 20.5292C121.709 20.3773 121.779 20.1436 121.779 19.8281V10.7482C121.779 10.3859 121.733 10.1172 121.639 9.94189C121.557 9.7666 121.435 9.64975 121.271 9.59132C121.119 9.53289 120.938 9.50367 120.728 9.50367H120.623V8.50454H124.216L124.584 9.78413H124.654C124.911 9.36344 125.25 9.01871 125.671 8.74994C126.103 8.46948 126.658 8.32925 127.336 8.32925C128.505 8.32925 129.393 8.72657 130 9.5212C130.62 10.3041 130.929 11.5487 130.929 13.2548C130.929 14.9492 130.626 16.1879 130.018 16.9709C129.422 17.7421 128.534 18.1278 127.354 18.1278C126.734 18.1278 126.226 18.0226 125.829 17.8123C125.443 17.6019 125.122 17.3098 124.864 16.9358H124.759C124.771 17.1228 124.783 17.339 124.794 17.5844C124.818 17.8181 124.835 18.0518 124.847 18.2855C124.859 18.5192 124.864 18.7413 124.864 18.9516V19.793C124.864 20.1202 124.929 20.3598 125.057 20.5117C125.198 20.6753 125.361 20.7804 125.548 20.8272C125.735 20.8856 125.893 20.9148 126.021 20.9148H126.53V21.9315H120.377ZM126.389 16.7605C126.74 16.7605 127.02 16.6378 127.231 16.3924C127.441 16.1354 127.593 15.7497 127.687 15.2355C127.792 14.7214 127.844 14.0728 127.844 13.2899C127.844 12.5303 127.792 11.8876 127.687 11.3617C127.593 10.8242 127.441 10.4152 127.231 10.1347C127.032 9.85425 126.763 9.71402 126.425 9.71402C126.016 9.71402 125.694 9.85425 125.46 10.1347C125.238 10.4152 125.081 10.8183 124.987 11.3442C124.905 11.87 124.864 12.5069 124.864 13.2548C124.864 14.0611 124.905 14.7214 124.987 15.2355C125.081 15.7497 125.238 16.1354 125.46 16.3924C125.682 16.6378 125.992 16.7605 126.389 16.7605ZM131.967 17.8999V16.9008H132.177C132.376 16.9008 132.563 16.8657 132.738 16.7956C132.925 16.7255 133.071 16.6028 133.177 16.4275C133.293 16.2522 133.352 16.001 133.352 15.6738V10.6255C133.352 10.3217 133.293 10.0938 133.177 9.94189C133.06 9.77829 132.908 9.66727 132.721 9.60884C132.546 9.53873 132.364 9.50367 132.177 9.50367H131.897V8.50454H136.419V15.7088C136.419 16.0243 136.472 16.2697 136.577 16.445C136.694 16.6086 136.84 16.7255 137.015 16.7956C137.202 16.8657 137.395 16.9008 137.594 16.9008H137.787V17.8999H131.967ZM134.789 6.99707C134.31 6.99707 133.907 6.88606 133.58 6.66403C133.264 6.442 133.106 6.10896 133.106 5.6649C133.106 5.19746 133.27 4.85858 133.597 4.64823C133.924 4.43789 134.328 4.33272 134.807 4.33272C135.263 4.33272 135.66 4.43789 135.999 4.64823C136.338 4.85858 136.507 5.19746 136.507 5.6649C136.507 6.10896 136.338 6.442 135.999 6.66403C135.66 6.88606 135.257 6.99707 134.789 6.99707ZM138.422 17.8999V16.9008H138.474C138.743 16.9008 138.971 16.8716 139.158 16.8131C139.345 16.7547 139.491 16.6437 139.596 16.4801C139.701 16.3048 139.754 16.0477 139.754 15.7088V10.6255C139.754 10.31 139.707 10.0704 139.614 9.90683C139.52 9.74323 139.386 9.63806 139.211 9.59132C139.035 9.53289 138.819 9.50367 138.562 9.50367H138.509V8.50454H142.523L142.751 9.67896H142.839C143.038 9.34007 143.254 9.0713 143.488 8.87264C143.733 8.6623 144.019 8.51038 144.346 8.4169C144.674 8.31172 145.059 8.25914 145.503 8.25914C146.427 8.25914 147.134 8.52791 147.624 9.06546C148.127 9.59132 148.378 10.4444 148.378 11.6246V15.6562C148.378 16.0185 148.413 16.2873 148.483 16.4626C148.565 16.6378 148.682 16.7547 148.834 16.8131C148.997 16.8716 149.208 16.9008 149.465 16.9008H149.535V17.8999H145.311V12.2557C145.311 11.4961 145.223 10.9118 145.048 10.5028C144.884 10.0938 144.586 9.8893 144.154 9.8893C143.815 9.8893 143.546 10.0178 143.347 10.2749C143.16 10.5203 143.026 10.8475 142.944 11.2565C142.862 11.6539 142.821 12.0862 142.821 12.5537V15.7614C142.821 16.0886 142.868 16.334 142.962 16.4976C143.055 16.6495 143.19 16.7547 143.365 16.8131C143.54 16.8716 143.756 16.9008 144.013 16.9008H144.066V17.8999H138.422ZM154.141 22.0367C152.704 22.0367 151.629 21.838 150.916 21.4407C150.203 21.0434 149.847 20.4591 149.847 19.6878C149.847 19.2905 149.94 18.9458 150.127 18.6536C150.326 18.3732 150.606 18.1453 150.968 17.97C151.342 17.8064 151.781 17.7129 152.283 17.6896C151.944 17.561 151.623 17.374 151.319 17.1286C151.027 16.8832 150.881 16.5502 150.881 16.1295C150.881 15.7322 151.039 15.3875 151.354 15.0953C151.681 14.8032 152.102 14.5227 152.616 14.2539C152.067 14.0787 151.6 13.769 151.214 13.3249C150.828 12.8692 150.635 12.2615 150.635 11.5019C150.635 10.4619 150.951 9.66143 151.582 9.10051C152.213 8.5396 153.2 8.25914 154.544 8.25914C154.988 8.25914 155.386 8.30004 155.736 8.38184C156.099 8.46364 156.426 8.5805 156.718 8.73241C156.917 8.52207 157.109 8.34094 157.296 8.18902C157.495 8.03711 157.699 7.92025 157.91 7.83845C158.132 7.75665 158.383 7.71575 158.664 7.71575C159.084 7.71575 159.4 7.82092 159.61 8.03127C159.82 8.24161 159.926 8.48701 159.926 8.76747C159.926 9.04793 159.832 9.29917 159.645 9.5212C159.458 9.74323 159.113 9.85425 158.611 9.85425C158.611 9.57379 158.535 9.37513 158.383 9.25827C158.243 9.12973 158.103 9.06546 157.962 9.06546C157.857 9.06546 157.752 9.08299 157.647 9.11804C157.542 9.1531 157.454 9.194 157.384 9.24074C157.664 9.48614 157.898 9.79582 158.085 10.1698C158.272 10.5437 158.366 10.9702 158.366 11.4494C158.366 12.3725 158.056 13.1321 157.437 13.7281C156.829 14.3124 155.865 14.6045 154.544 14.6045C154.427 14.6045 154.252 14.5987 154.018 14.587C153.796 14.5753 153.633 14.5636 153.528 14.5519C153.387 14.5987 153.253 14.7038 153.125 14.8674C153.008 15.0194 152.949 15.1888 152.949 15.3758C152.949 15.5627 153.025 15.6971 153.177 15.7789C153.329 15.8607 153.516 15.9016 153.738 15.9016H155.841C156.659 15.9016 157.326 16.0068 157.84 16.2172C158.366 16.4158 158.757 16.7196 159.014 17.1286C159.271 17.526 159.4 18.0168 159.4 18.601C159.4 19.6761 158.967 20.5175 158.103 21.1252C157.25 21.7328 155.929 22.0367 154.141 22.0367ZM154.176 20.9148C154.807 20.9148 155.333 20.8564 155.754 20.7395C156.174 20.6227 156.49 20.4416 156.7 20.1962C156.922 19.9624 157.033 19.6761 157.033 19.3373C157.033 19.0451 156.928 18.8172 156.718 18.6536C156.519 18.5017 156.198 18.4258 155.754 18.4258H153.598C153.411 18.4258 153.206 18.4608 152.984 18.5309C152.762 18.601 152.575 18.7237 152.423 18.899C152.271 19.086 152.195 19.3489 152.195 19.6878C152.195 19.9683 152.277 20.1962 152.441 20.3714C152.604 20.5584 152.838 20.6928 153.142 20.7746C153.446 20.8681 153.791 20.9148 154.176 20.9148ZM154.509 13.5002C154.825 13.5002 155.064 13.4184 155.228 13.2548C155.392 13.0795 155.503 12.84 155.561 12.5361C155.619 12.2323 155.649 11.8876 155.649 11.5019C155.649 11.1046 155.619 10.7482 155.561 10.4327C155.503 10.1055 155.392 9.8484 155.228 9.66143C155.064 9.47446 154.819 9.38097 154.492 9.38097C154.188 9.38097 153.948 9.4803 153.773 9.67896C153.609 9.86593 153.493 10.123 153.422 10.4502C153.352 10.7657 153.317 11.1222 153.317 11.5195C153.317 11.8934 153.352 12.2323 153.422 12.5361C153.493 12.8283 153.609 13.062 153.773 13.2373C153.948 13.4126 154.194 13.5002 154.509 13.5002Z" fill="white"/>
</svg>
