<svg width="160" height="24" viewBox="0 0 160 24" fill="none" xmlns="http://www.w3.org/2000/svg">
<path d="M2.6293 18.9604V17.9613H3.27786C3.47652 17.9613 3.6518 17.9379 3.80372 17.8912C3.95563 17.8328 4.07249 17.7218 4.15429 17.5582C4.23609 17.3946 4.27699 17.1492 4.27699 16.822V7.58435H2.97987C2.6293 7.58435 2.35468 7.63109 2.15603 7.72458C1.95737 7.80638 1.8113 7.93492 1.71781 8.11021C1.62432 8.28549 1.56005 8.50168 1.52499 8.75877L1.38476 9.98577H0.105172L0.192815 6.44498H11.5339L11.6215 9.98577H10.3419L10.2192 8.75877C10.1958 8.50168 10.1316 8.28549 10.0264 8.11021C9.93291 7.93492 9.78684 7.80638 9.58818 7.72458C9.38952 7.63109 9.1149 7.58435 8.76433 7.58435H7.46721V16.857C7.46721 17.1725 7.50811 17.4121 7.58991 17.5757C7.6834 17.7276 7.8061 17.8328 7.95801 17.8912C8.10993 17.9379 8.27937 17.9613 8.46634 17.9613H9.1149V18.9604H2.6293ZM11.9886 18.9604V17.9613H12.0588C12.3275 17.9613 12.5554 17.9321 12.7424 17.8737C12.9294 17.8152 13.0754 17.6984 13.1806 17.5231C13.2858 17.3361 13.3384 17.0615 13.3384 16.6993V11.7562C13.3384 11.4056 13.2916 11.1485 13.1981 10.9849C13.1163 10.8096 12.9878 10.6986 12.8125 10.6519C12.6372 10.5934 12.421 10.5642 12.1639 10.5642H12.1113V9.56509H15.9501L16.3007 11.0726H16.3883C16.5636 10.6635 16.7681 10.3305 17.0018 10.0734C17.2356 9.81633 17.516 9.62936 17.8432 9.5125C18.1704 9.39564 18.5677 9.33721 19.0352 9.33721C19.7129 9.33721 20.2096 9.48913 20.5251 9.79296C20.8406 10.0851 20.9984 10.4649 20.9984 10.9323C20.9984 11.54 20.7763 11.9899 20.3323 12.282C19.8999 12.5625 19.3098 12.7027 18.5619 12.7027C18.5619 12.3755 18.5385 12.1067 18.4918 11.8964C18.445 11.6744 18.3632 11.5049 18.2464 11.3881C18.1412 11.2712 17.9776 11.2128 17.7556 11.2128C17.4985 11.2128 17.2823 11.3004 17.107 11.4757C16.9434 11.651 16.809 11.8847 16.7039 12.1769C16.6104 12.4573 16.5403 12.7611 16.4935 13.0883C16.4468 13.4039 16.4234 13.696 16.4234 13.9648V16.7869C16.4234 17.1258 16.4701 17.3829 16.5636 17.5582C16.6571 17.7218 16.7915 17.8328 16.9668 17.8912C17.1421 17.9379 17.3407 17.9613 17.5628 17.9613H18.1587V18.9604H11.9886ZM21.6635 21.8877C22.2712 21.8877 22.7912 21.8176 23.2236 21.6774C23.6559 21.5488 24.0123 21.3619 24.2928 21.1165C24.585 20.8711 24.8245 20.5789 25.0115 20.24C25.1985 19.9012 25.3621 19.5272 25.5023 19.1182L22.3822 11.3705C22.3004 11.1485 22.2069 10.9908 22.1017 10.8973C21.9966 10.7921 21.8797 10.722 21.7512 10.6869C21.6226 10.6402 21.4765 10.6168 21.3129 10.6168H21.2253V9.56509H26.5891V10.5642H26.5189C26.1684 10.5642 25.9054 10.611 25.7302 10.7044C25.5666 10.7979 25.4848 10.9557 25.4848 11.1777C25.4848 11.2829 25.5023 11.4056 25.5373 11.5458C25.5841 11.6744 25.625 11.7912 25.66 11.8964L26.7118 14.8587C26.7819 15.0457 26.8403 15.2268 26.887 15.4021C26.9455 15.5774 26.9922 15.741 27.0273 15.8929C27.0623 16.0332 27.0916 16.1675 27.1149 16.2961C27.1383 16.4246 27.1558 16.5473 27.1675 16.6642C27.1909 16.4071 27.2376 16.1617 27.3077 15.928C27.3779 15.6826 27.4304 15.5073 27.4655 15.4021L28.5698 12.1067C28.6049 12.0016 28.6458 11.8555 28.6925 11.6685C28.7392 11.4699 28.7626 11.318 28.7626 11.2128C28.7626 10.9674 28.6691 10.8038 28.4822 10.722C28.3069 10.6285 28.0381 10.5759 27.6758 10.5642H27.6057V9.56509H31.4971V10.5642H31.427C31.2166 10.5759 31.0297 10.6226 30.8661 10.7044C30.7141 10.7862 30.5739 10.9206 30.4454 11.1076C30.3285 11.2829 30.2117 11.5166 30.0948 11.8088L27.448 18.9254C27.1558 19.7434 26.8754 20.4095 26.6066 20.9237C26.3378 21.4495 26.0165 21.8644 25.6425 22.1682C25.2686 22.472 24.7953 22.6824 24.2227 22.7992C23.6501 22.9278 22.9139 22.992 22.0141 22.992H21.6635V21.8877ZM37.47 8.37314C37.3999 8.12774 37.3064 7.94076 37.1895 7.81222C37.0843 7.67199 36.9558 7.5785 36.8039 7.53176C36.652 7.47333 36.4592 7.44412 36.2254 7.44412H35.9976V6.44498H42.2553V7.44412H41.8521C41.5016 7.44412 41.2386 7.51423 41.0634 7.65446C40.8881 7.78301 40.8004 7.99335 40.8004 8.28549C40.8004 8.34392 40.8121 8.43741 40.8355 8.56595C40.8589 8.6945 40.8822 8.82888 40.9056 8.96911C40.9407 9.10934 40.9699 9.24373 40.9932 9.37227L42.0625 13.176C42.1443 13.4331 42.2202 13.7135 42.2904 14.0174C42.3722 14.3212 42.4423 14.6192 42.5007 14.9113C42.5708 15.1918 42.6176 15.4547 42.6409 15.7001C42.7227 15.3495 42.8104 15.0107 42.9039 14.6835C42.9973 14.3563 43.1025 13.9998 43.2194 13.6142L45.5156 6.56769H47.0757L49.2317 12.8955C49.3603 13.2578 49.4771 13.62 49.5823 13.9823C49.6875 14.3329 49.7751 14.6601 49.8452 14.9639C49.927 15.2561 49.9913 15.519 50.038 15.7527C50.0848 15.4839 50.149 15.1743 50.2308 14.8237C50.3126 14.4614 50.3944 14.0875 50.4762 13.7019C50.5697 13.3162 50.6632 12.9481 50.7567 12.5975L51.528 9.45991C51.5864 9.26126 51.639 9.04507 51.6857 8.81135C51.7325 8.57764 51.7558 8.39651 51.7558 8.26797C51.7558 7.96413 51.6682 7.75379 51.4929 7.63693C51.3293 7.50839 51.0547 7.44412 50.6691 7.44412H50.2659V6.44498H54.9636V7.44412H54.6305C54.4085 7.44412 54.2157 7.47918 54.0521 7.54929C53.8885 7.60772 53.7483 7.73626 53.6314 7.93492C53.5145 8.13358 53.4035 8.42572 53.2984 8.81135L50.5814 18.9604H48.2852L45.5857 10.9849L43.0616 18.9604H40.6777L37.47 8.37314ZM59.3567 19.1357C57.7674 19.1357 56.5813 18.715 55.7984 17.8737C55.0154 17.0206 54.624 15.8287 54.624 14.2978C54.624 12.6501 55.0154 11.4114 55.7984 10.5817C56.593 9.74037 57.709 9.31969 59.1464 9.31969C60.4785 9.31969 61.5244 9.6761 62.284 10.3889C63.0553 11.1018 63.4409 12.1535 63.4409 13.5441V14.4906H57.7265C57.7499 15.2385 57.8492 15.852 58.0245 16.3311C58.2115 16.8103 58.4744 17.1667 58.8133 17.4004C59.1522 17.6224 59.5671 17.7334 60.0579 17.7334C60.4669 17.7334 60.8174 17.6692 61.1096 17.5406C61.4134 17.4004 61.6705 17.2193 61.8808 16.9972C62.1029 16.7635 62.2782 16.5006 62.4067 16.2084C62.6054 16.2786 62.7573 16.3896 62.8624 16.5415C62.9793 16.6817 63.0377 16.8629 63.0377 17.0849C63.0377 17.4238 62.9092 17.751 62.6521 18.0665C62.4067 18.382 62.0152 18.6391 61.4777 18.8377C60.9401 19.0364 60.2331 19.1357 59.3567 19.1357ZM60.3909 13.2987C60.3909 12.7027 60.35 12.2002 60.2682 11.7912C60.1864 11.3822 60.0579 11.0726 59.8826 10.8622C59.719 10.6402 59.4969 10.5292 59.2165 10.5292C58.936 10.5292 58.6848 10.6343 58.4627 10.8447C58.2407 11.055 58.0713 11.3647 57.9544 11.7737C57.8376 12.1827 57.7733 12.691 57.7616 13.2987H60.3909ZM71.3803 19.1357C70.7025 19.1357 70.1474 18.9955 69.715 18.715C69.2827 18.4229 68.9379 18.049 68.6809 17.5932H68.5231L67.9622 18.9604H64.4039V17.9613H64.5266C64.7369 17.9613 64.9414 17.9321 65.1401 17.8737C65.3387 17.8152 65.5023 17.6984 65.6309 17.5231C65.7594 17.3478 65.8237 17.0849 65.8237 16.7343V7.81222C65.8237 7.47333 65.7594 7.22209 65.6309 7.05849C65.514 6.89489 65.3563 6.78387 65.1576 6.72544C64.9589 6.66701 64.7311 6.6378 64.474 6.6378H64.4039V5.63867H68.8912V8.54842C68.8912 8.7354 68.8854 8.95743 68.8737 9.21451C68.862 9.4716 68.8445 9.72284 68.8211 9.96825C68.7977 10.2136 68.7743 10.424 68.751 10.5993H68.8737C69.1191 10.237 69.4463 9.93903 69.8553 9.70532C70.276 9.45991 70.8194 9.33721 71.4854 9.33721C72.619 9.33721 73.4837 9.72869 74.0797 10.5116C74.6757 11.2946 74.9736 12.5274 74.9736 14.2102C74.9736 15.3437 74.8334 16.2786 74.553 17.0148C74.2842 17.7393 73.881 18.2768 73.3435 18.6274C72.8176 18.9663 72.1632 19.1357 71.3803 19.1357ZM70.4513 17.751C70.7901 17.751 71.0648 17.6166 71.2751 17.3478C71.4854 17.0674 71.6374 16.6642 71.7308 16.1383C71.836 15.6125 71.8886 14.9639 71.8886 14.1927C71.8886 13.4214 71.836 12.7787 71.7308 12.2645C71.6374 11.7386 71.4854 11.3472 71.2751 11.0901C71.0648 10.833 70.7901 10.7044 70.4513 10.7044C69.8436 10.7044 69.4287 10.9966 69.2067 11.5809C68.9964 12.1535 68.8912 13.0299 68.8912 14.2102C68.8912 14.9698 68.9379 15.6125 69.0314 16.1383C69.1249 16.6642 69.2827 17.0674 69.5047 17.3478C69.7384 17.6166 70.0539 17.751 70.4513 17.751ZM85.1201 19.1357C84.2437 19.1357 83.525 19.0598 82.9641 18.9079C82.4032 18.7443 81.9591 18.5398 81.6319 18.2944C81.3164 18.049 81.0944 17.786 80.9658 17.5056C80.8373 17.2134 80.773 16.9447 80.773 16.6993C80.773 16.2318 80.8782 15.8696 81.0885 15.6125C81.2989 15.3437 81.5677 15.1567 81.8949 15.0516C82.2221 14.9347 82.5726 14.8763 82.9466 14.8763C82.9466 15.6125 83.0634 16.2143 83.2972 16.6817C83.5309 17.1375 83.8405 17.4764 84.2262 17.6984C84.6118 17.9087 85.0208 18.0139 85.4532 18.0139C86.1076 18.0139 86.6101 17.8328 86.9607 17.4705C87.3229 17.1083 87.504 16.6993 87.504 16.2435C87.504 15.8579 87.3813 15.5248 87.1359 15.2444C86.9022 14.9639 86.5633 14.7068 86.1193 14.4731C85.6752 14.2394 85.1318 13.994 84.4891 13.7369C83.8464 13.4681 83.3088 13.1935 82.8765 12.9131C82.4441 12.6326 82.0994 12.3346 81.8423 12.0191C81.5852 11.6919 81.4041 11.353 81.2989 11.0024C81.1937 10.6402 81.1411 10.2545 81.1411 9.84554C81.1411 9.10934 81.3398 8.47831 81.7371 7.95245C82.1344 7.4149 82.672 7.00006 83.3497 6.70791C84.0392 6.41577 84.8105 6.2697 85.6635 6.2697C86.575 6.2697 87.3171 6.37487 87.8897 6.58521C88.474 6.78387 88.9005 7.0468 89.1693 7.374C89.438 7.68952 89.5724 8.02841 89.5724 8.39067C89.5724 8.82304 89.3854 9.1853 89.0115 9.47744C88.6492 9.76959 88.0474 9.91566 87.2061 9.91566C87.2061 9.54171 87.1359 9.16777 86.9957 8.79382C86.8672 8.40819 86.6627 8.08099 86.3822 7.81222C86.1017 7.54345 85.7453 7.40906 85.313 7.40906C85.0091 7.40906 84.7345 7.46749 84.4891 7.58435C84.2437 7.68952 84.045 7.84728 83.8931 8.05762C83.7529 8.26796 83.6828 8.54258 83.6828 8.88147C83.6828 9.15024 83.7587 9.41901 83.9107 9.68779C84.0626 9.94487 84.3547 10.2136 84.7871 10.4941C85.2195 10.7746 85.8505 11.0842 86.6802 11.4231C87.5333 11.762 88.2052 12.1243 88.696 12.5099C89.1985 12.8838 89.549 13.2987 89.7477 13.7544C89.9581 14.1985 90.0632 14.701 90.0632 15.2619C90.0632 16.0215 89.8587 16.6934 89.4497 17.2777C89.0524 17.8503 88.4798 18.306 87.7319 18.6449C86.9957 18.9721 86.1251 19.1357 85.1201 19.1357ZM96.0002 19.1357C95.1121 19.1357 94.3292 18.9897 93.6514 18.6975C92.9736 18.3937 92.4478 17.8912 92.0738 17.1901C91.6999 16.4772 91.5129 15.5073 91.5129 14.2803C91.5129 13.0182 91.7057 12.0308 92.0913 11.318C92.4887 10.5934 93.0204 10.0793 93.6865 9.77543C94.3642 9.4716 95.118 9.31969 95.9477 9.31969C96.8241 9.31969 97.5252 9.40733 98.0511 9.58261C98.5886 9.7579 98.9801 9.98577 99.2255 10.2662C99.4709 10.5467 99.5936 10.8505 99.5936 11.1777C99.5936 11.4114 99.5293 11.6568 99.4008 11.9139C99.2839 12.171 99.0385 12.3872 98.6646 12.5625C98.3023 12.7378 97.7648 12.8254 97.052 12.8254C97.052 12.4047 97.0227 12.0191 96.9643 11.6685C96.9059 11.3063 96.8007 11.0141 96.6488 10.7921C96.5086 10.5701 96.3099 10.459 96.0528 10.459C95.7607 10.459 95.5036 10.5759 95.2816 10.8096C95.0712 11.0317 94.9076 11.4173 94.7908 11.9665C94.6739 12.5157 94.6155 13.2812 94.6155 14.2628C94.6155 15.034 94.6797 15.6826 94.8083 16.2084C94.9368 16.7226 95.1355 17.1083 95.4043 17.3653C95.6847 17.6224 96.0411 17.751 96.4735 17.751C96.8942 17.751 97.274 17.6867 97.6129 17.5582C97.9634 17.4296 98.2673 17.2485 98.5244 17.0148C98.7815 16.7811 98.9743 16.5298 99.1028 16.261C99.2664 16.3428 99.3833 16.4655 99.4534 16.6291C99.5235 16.7927 99.5586 16.9563 99.5586 17.1199C99.5586 17.4121 99.4359 17.7159 99.1905 18.0314C98.9451 18.3469 98.5594 18.6099 98.0336 18.8202C97.5194 19.0306 96.8416 19.1357 96.0002 19.1357ZM100.488 18.9604V17.9613H100.558C100.827 17.9613 101.055 17.9321 101.242 17.8737C101.429 17.8152 101.575 17.6984 101.68 17.5231C101.785 17.3361 101.838 17.0615 101.838 16.6993V11.7562C101.838 11.4056 101.791 11.1485 101.697 10.9849C101.616 10.8096 101.487 10.6986 101.312 10.6519C101.136 10.5934 100.92 10.5642 100.663 10.5642H100.611V9.56509H104.449L104.8 11.0726H104.888C105.063 10.6635 105.267 10.3305 105.501 10.0734C105.735 9.81633 106.015 9.62936 106.342 9.5125C106.67 9.39564 107.067 9.33721 107.534 9.33721C108.212 9.33721 108.709 9.48913 109.024 9.79296C109.34 10.0851 109.498 10.4649 109.498 10.9323C109.498 11.54 109.276 11.9899 108.831 12.282C108.399 12.5625 107.809 12.7027 107.061 12.7027C107.061 12.3755 107.038 12.1067 106.991 11.8964C106.944 11.6744 106.862 11.5049 106.746 11.3881C106.64 11.2712 106.477 11.2128 106.255 11.2128C105.998 11.2128 105.782 11.3004 105.606 11.4757C105.443 11.651 105.308 11.8847 105.203 12.1769C105.11 12.4573 105.039 12.7611 104.993 13.0883C104.946 13.4039 104.923 13.696 104.923 13.9648V16.7869C104.923 17.1258 104.969 17.3829 105.063 17.5582C105.156 17.7218 105.291 17.8328 105.466 17.8912C105.641 17.9379 105.84 17.9613 106.062 17.9613H106.658V18.9604H100.488ZM112.923 19.1357C112.42 19.1357 111.959 19.0306 111.538 18.8202C111.117 18.6099 110.784 18.2944 110.539 17.8737C110.294 17.4413 110.171 16.9038 110.171 16.261C110.171 15.3028 110.492 14.5958 111.135 14.1401C111.789 13.6843 112.765 13.4331 114.062 13.3863L115.5 13.3337V12.3872C115.5 11.9782 115.47 11.6335 115.412 11.353C115.354 11.0609 115.254 10.8388 115.114 10.6869C114.974 10.535 114.775 10.459 114.518 10.459C114.273 10.459 114.074 10.535 113.922 10.6869C113.77 10.8388 113.653 11.055 113.571 11.3355C113.501 11.6159 113.466 11.9548 113.466 12.3521C112.613 12.3521 111.971 12.2645 111.538 12.0892C111.117 11.9022 110.907 11.5867 110.907 11.1427C110.907 10.6986 111.077 10.348 111.415 10.0909C111.766 9.82217 112.228 9.62936 112.8 9.5125C113.373 9.38396 114.004 9.31969 114.693 9.31969C115.99 9.31969 116.96 9.54171 117.603 9.98577C118.246 10.4181 118.567 11.1777 118.567 12.2645V16.7168C118.567 17.0323 118.596 17.2835 118.655 17.4705C118.725 17.6458 118.836 17.7743 118.988 17.8561C119.151 17.9263 119.362 17.9613 119.619 17.9613H119.689V18.9604H116.061L115.657 17.8737H115.5C115.243 18.1892 114.997 18.4404 114.763 18.6274C114.541 18.8027 114.284 18.9312 113.992 19.013C113.712 19.0948 113.355 19.1357 112.923 19.1357ZM114.115 17.786C114.407 17.786 114.652 17.6984 114.851 17.5231C115.061 17.3361 115.219 17.079 115.324 16.7518C115.441 16.4246 115.5 16.0448 115.5 15.6125V14.3329L114.851 14.3855C114.454 14.4088 114.144 14.4965 113.922 14.6484C113.7 14.8003 113.536 15.0165 113.431 15.297C113.338 15.5657 113.291 15.9046 113.291 16.3136C113.291 16.6291 113.32 16.8979 113.379 17.1199C113.437 17.342 113.525 17.5114 113.642 17.6283C113.77 17.7334 113.928 17.786 114.115 17.786ZM120.377 22.992V21.9754H120.605C120.745 21.9754 120.909 21.952 121.096 21.9053C121.283 21.8585 121.441 21.7533 121.569 21.5897C121.709 21.4378 121.779 21.2041 121.779 20.8886V11.8088C121.779 11.4465 121.733 11.1777 121.639 11.0024C121.557 10.8271 121.435 10.7103 121.271 10.6519C121.119 10.5934 120.938 10.5642 120.728 10.5642H120.623V9.56509H124.216L124.584 10.8447H124.654C124.911 10.424 125.25 10.0793 125.671 9.81049C126.103 9.53003 126.658 9.3898 127.336 9.3898C128.505 9.3898 129.393 9.78712 130 10.5817C130.62 11.3647 130.929 12.6092 130.929 14.3154C130.929 16.0098 130.626 17.2485 130.018 18.0314C129.422 18.8027 128.534 19.1883 127.354 19.1883C126.734 19.1883 126.226 19.0831 125.829 18.8728C125.443 18.6625 125.122 18.3703 124.864 17.9964H124.759C124.771 18.1833 124.783 18.3995 124.794 18.6449C124.818 18.8786 124.835 19.1124 124.847 19.3461C124.859 19.5798 124.864 19.8018 124.864 20.0122V20.8535C124.864 21.1807 124.929 21.4203 125.057 21.5722C125.198 21.7358 125.361 21.841 125.548 21.8877C125.735 21.9462 125.893 21.9754 126.021 21.9754H126.53V22.992H120.377ZM126.389 17.8211C126.74 17.8211 127.02 17.6984 127.231 17.453C127.441 17.1959 127.593 16.8103 127.687 16.2961C127.792 15.7819 127.844 15.1334 127.844 14.3504C127.844 13.5908 127.792 12.9481 127.687 12.4223C127.593 11.8847 127.441 11.4757 127.231 11.1953C127.032 10.9148 126.763 10.7746 126.425 10.7746C126.016 10.7746 125.694 10.9148 125.46 11.1953C125.238 11.4757 125.081 11.8789 124.987 12.4047C124.905 12.9306 124.864 13.5675 124.864 14.3154C124.864 15.1217 124.905 15.7819 124.987 16.2961C125.081 16.8103 125.238 17.1959 125.46 17.453C125.682 17.6984 125.992 17.8211 126.389 17.8211ZM131.967 18.9604V17.9613H132.177C132.376 17.9613 132.563 17.9263 132.738 17.8561C132.925 17.786 133.071 17.6633 133.177 17.488C133.293 17.3128 133.352 17.0615 133.352 16.7343V11.6861C133.352 11.3822 133.293 11.1544 133.177 11.0024C133.06 10.8388 132.908 10.7278 132.721 10.6694C132.546 10.5993 132.364 10.5642 132.177 10.5642H131.897V9.56509H136.419V16.7694C136.419 17.0849 136.472 17.3303 136.577 17.5056C136.694 17.6692 136.84 17.786 137.015 17.8561C137.202 17.9263 137.395 17.9613 137.594 17.9613H137.787V18.9604H131.967ZM134.789 8.05762C134.31 8.05762 133.907 7.94661 133.58 7.72458C133.264 7.50255 133.106 7.1695 133.106 6.72544C133.106 6.25801 133.27 5.91912 133.597 5.70878C133.924 5.49844 134.328 5.39326 134.807 5.39326C135.263 5.39326 135.66 5.49844 135.999 5.70878C136.338 5.91912 136.507 6.25801 136.507 6.72544C136.507 7.1695 136.338 7.50255 135.999 7.72458C135.66 7.94661 135.257 8.05762 134.789 8.05762ZM138.422 18.9604V17.9613H138.474C138.743 17.9613 138.971 17.9321 139.158 17.8737C139.345 17.8152 139.491 17.7042 139.596 17.5406C139.701 17.3653 139.754 17.1083 139.754 16.7694V11.6861C139.754 11.3705 139.707 11.131 139.614 10.9674C139.52 10.8038 139.386 10.6986 139.211 10.6519C139.035 10.5934 138.819 10.5642 138.562 10.5642H138.509V9.56509H142.523L142.751 10.7395H142.839C143.038 10.4006 143.254 10.1318 143.488 9.93319C143.733 9.72284 144.019 9.57093 144.346 9.47744C144.674 9.37227 145.059 9.31969 145.503 9.31969C146.427 9.31969 147.134 9.58846 147.624 10.126C148.127 10.6519 148.378 11.5049 148.378 12.6852V16.7168C148.378 17.079 148.413 17.3478 148.483 17.5231C148.565 17.6984 148.682 17.8152 148.834 17.8737C148.997 17.9321 149.208 17.9613 149.465 17.9613H149.535V18.9604H145.311V13.3162C145.311 12.5566 145.223 11.9724 145.048 11.5634C144.884 11.1544 144.586 10.9499 144.154 10.9499C143.815 10.9499 143.546 11.0784 143.347 11.3355C143.16 11.5809 143.026 11.9081 142.944 12.3171C142.862 12.7144 142.821 13.1468 142.821 13.6142V16.822C142.821 17.1492 142.868 17.3946 142.962 17.5582C143.055 17.7101 143.19 17.8152 143.365 17.8737C143.54 17.9321 143.756 17.9613 144.013 17.9613H144.066V18.9604H138.422ZM154.141 23.0972C152.704 23.0972 151.629 22.8986 150.916 22.5012C150.203 22.1039 149.847 21.5196 149.847 20.7484C149.847 20.3511 149.94 20.0063 150.127 19.7142C150.326 19.4337 150.606 19.2059 150.968 19.0306C151.342 18.867 151.781 18.7735 152.283 18.7501C151.944 18.6216 151.623 18.4346 151.319 18.1892C151.027 17.9438 150.881 17.6107 150.881 17.1901C150.881 16.7927 151.039 16.448 151.354 16.1559C151.681 15.8637 152.102 15.5833 152.616 15.3145C152.067 15.1392 151.6 14.8295 151.214 14.3855C150.828 13.9297 150.635 13.3221 150.635 12.5625C150.635 11.5225 150.951 10.722 151.582 10.1611C152.213 9.60014 153.2 9.31969 154.544 9.31969C154.988 9.31969 155.386 9.36059 155.736 9.44239C156.099 9.52419 156.426 9.64104 156.718 9.79296C156.917 9.58262 157.109 9.40149 157.296 9.24957C157.495 9.09766 157.699 8.9808 157.91 8.899C158.132 8.8172 158.383 8.7763 158.664 8.7763C159.084 8.7763 159.4 8.88147 159.61 9.09181C159.82 9.30216 159.926 9.54756 159.926 9.82802C159.926 10.1085 159.832 10.3597 159.645 10.5817C159.458 10.8038 159.113 10.9148 158.611 10.9148C158.611 10.6343 158.535 10.4357 158.383 10.3188C158.243 10.1903 158.103 10.126 157.962 10.126C157.857 10.126 157.752 10.1435 157.647 10.1786C157.542 10.2136 157.454 10.2545 157.384 10.3013C157.664 10.5467 157.898 10.8564 158.085 11.2303C158.272 11.6043 158.366 12.0308 158.366 12.5099C158.366 13.4331 158.056 14.1927 157.437 14.7886C156.829 15.3729 155.865 15.6651 154.544 15.6651C154.427 15.6651 154.252 15.6592 154.018 15.6475C153.796 15.6358 153.633 15.6242 153.528 15.6125C153.387 15.6592 153.253 15.7644 153.125 15.928C153.008 16.0799 152.949 16.2493 152.949 16.4363C152.949 16.6233 153.025 16.7577 153.177 16.8395C153.329 16.9213 153.516 16.9622 153.738 16.9622H155.841C156.659 16.9622 157.326 17.0674 157.84 17.2777C158.366 17.4764 158.757 17.7802 159.014 18.1892C159.271 18.5865 159.4 19.0773 159.4 19.6616C159.4 20.7367 158.967 21.5781 158.103 22.1857C157.25 22.7934 155.929 23.0972 154.141 23.0972ZM154.176 21.9754C154.807 21.9754 155.333 21.917 155.754 21.8001C156.174 21.6832 156.49 21.5021 156.7 21.2567C156.922 21.023 157.033 20.7367 157.033 20.3978C157.033 20.1057 156.928 19.8778 156.718 19.7142C156.519 19.5623 156.198 19.4863 155.754 19.4863H153.598C153.411 19.4863 153.206 19.5214 152.984 19.5915C152.762 19.6616 152.575 19.7843 152.423 19.9596C152.271 20.1466 152.195 20.4095 152.195 20.7484C152.195 21.0288 152.277 21.2567 152.441 21.432C152.604 21.619 152.838 21.7533 153.142 21.8351C153.446 21.9286 153.791 21.9754 154.176 21.9754ZM154.509 14.5608C154.825 14.5608 155.064 14.479 155.228 14.3154C155.392 14.1401 155.503 13.9005 155.561 13.5967C155.619 13.2928 155.649 12.9481 155.649 12.5625C155.649 12.1652 155.619 11.8088 155.561 11.4932C155.503 11.166 155.392 10.909 155.228 10.722C155.064 10.535 154.819 10.4415 154.492 10.4415C154.188 10.4415 153.948 10.5408 153.773 10.7395C153.609 10.9265 153.493 11.1836 153.422 11.5108C153.352 11.8263 153.317 12.1827 153.317 12.58C153.317 12.954 153.352 13.2928 153.422 13.5967C153.493 13.8888 153.609 14.1225 153.773 14.2978C153.948 14.4731 154.194 14.5608 154.509 14.5608Z" fill="black"/>
</svg>
